<svg xmlns="http://www.w3.org/2000/svg" xmlns:xlink="http://www.w3.org/1999/xlink" width="42" height="42" viewBox="0 0 42 42">
  <defs>
    <style>
      .cls-1 {
        fill: url(#linear-gradient);
      }

      .cls-2 {
        fill: #fff;
      }
    </style>
    <linearGradient id="linear-gradient" x1="0.5" x2="0.5" y2="1" gradientUnits="objectBoundingBox">
      <stop offset="0" stop-color="#ff6c4a"/>
      <stop offset="1" stop-color="#ff7b62"/>
    </linearGradient>
  </defs>
  <g id="组_2" data-name="组 2" transform="translate(-11813 -3854)">
    <rect id="矩形_3706" data-name="矩形 3706" class="cls-1" width="42" height="42" rx="4" transform="translate(11813 3854)"/>
    <path id="路径_2097" data-name="路径 2097" class="cls-2" d="M36.362,18.808a19.728,19.728,0,0,1-1.393,6.6A17.252,17.252,0,0,1,30.5,32.027a.564.564,0,0,0-.195.522c.071.684.127,1.368.2,2.053a3.931,3.931,0,0,1-1.689,3.823c-1.388.993-2.83,1.91-4.262,2.838a1.339,1.339,0,0,1-2.112-1.008q-.168-1.831-.292-3.666c-.043-.614-.026-.618-.622-.7a4.867,4.867,0,0,1-3.675-2.312,5.1,5.1,0,0,1-.732-2.28c-.023-.242-.122-.305-.352-.318-1.282-.071-2.563-.146-3.845-.242a1.357,1.357,0,0,1-1.035-2.126c.4-.655.829-1.293,1.243-1.939.446-.7.889-1.4,1.336-2.089a4.021,4.021,0,0,1,3.505-1.973,22.792,22.792,0,0,1,2.6.238.4.4,0,0,0,.392-.13,17.549,17.549,0,0,1,7.3-4.737,20.784,20.784,0,0,1,4.9-1.111,8.921,8.921,0,0,1,2.54.037c.46.084.485.1.556.551a6.687,6.687,0,0,1,.105,1.35v0Zm-4,5.624a3.659,3.659,0,1,0-7.318.021,3.659,3.659,0,0,0,7.317-.012v-.009ZM15.239,32.664a.706.706,0,0,1,.726.557,6.125,6.125,0,0,0,2.909,3.43,6.034,6.034,0,0,0,.976.423.708.708,0,0,1,.3,1.247c-.669.67-1.343,1.333-2.01,2a.684.684,0,0,1-.775.212.7.7,0,0,1-.483-.673c-.009-.206,0-.411-.009-.618-.009-.379-.012-.382-.363-.265-.75.245-1.5.5-2.25.743A.786.786,0,0,1,13.6,39.7a.693.693,0,0,1-.309-.89c.247-.767.51-1.528.764-2.292.111-.331.1-.337-.256-.344-.216,0-.435,0-.652-.011a.691.691,0,0,1-.659-.465.657.657,0,0,1,.173-.755q1.045-1.045,2.1-2.083a.605.605,0,0,1,.487-.2Z" transform="translate(11809.986 3845.848)"/>
  </g>
</svg>
